<svg enable-background="new 0 0 328.4 87.7" viewBox="0 0 328.4 87.7" xmlns="http://www.w3.org/2000/svg"><path d="m25.6 53.5-16.9 17v-8.2l-6.6 6.6v17.6l23.5-23.6 23.5 23.6v-9.4z" fill="#2a7050"/><path d="m18.8 77.3 6.8-6.8 6.8 6.8z" fill="#2a7050"/><path d="m25.6 18.7-16.9 17.1v-8.2l-6.6 6.6v17.5l23.5-23.6 23.5 23.6v-9.3z" fill="#36b0c9"/><path d="m25.6 1.3-23.5 23.7v9.3l23.5-23.6 23.5 23.6v-9.3z" fill="#3f738d"/><path d="m49.1 51.8v-.3l-6.6-6.7v.4 7.7.2l-16.9-17-23.5 23.7v9.3l6.6-6.6 16.9-17 23.5 23.6v-9.6z" fill="#004a98"/><g fill="#2d2a26"><path d="m180.6 77.1c-1.3 0-2.5-.2-3.6-.7s-2-1.1-2.8-1.9-1.4-1.7-1.8-2.8-.7-2.2-.7-3.4c0-1.2.2-2.4.7-3.4.4-1.1 1.1-2 1.9-2.8s1.8-1.5 2.9-1.9c1.1-.5 2.3-.7 3.6-.7s2.5.2 3.6.7 2 1.1 2.8 1.9 1.4 1.7 1.8 2.8.7 2.2.7 3.4c0 1.2-.2 2.4-.7 3.4-.4 1.1-1.1 2-1.9 2.8s-1.8 1.5-2.9 1.9c-1 .5-2.2.7-3.6.7zm.1-2.8c.8 0 1.6-.2 2.3-.5s1.3-.8 1.8-1.3.9-1.2 1.2-1.9.4-1.5.4-2.4c0-.8-.1-1.6-.4-2.4-.3-.7-.7-1.4-1.2-1.9s-1.1-1-1.8-1.3-1.5-.5-2.3-.5-1.6.2-2.3.5-1.3.8-1.8 1.3-.9 1.2-1.2 1.9-.4 1.5-.4 2.4c0 .8.1 1.6.4 2.4.3.7.7 1.4 1.2 1.9s1.1 1 1.8 1.3 1.4.5 2.3.5zm-2.1 6.4c3.3 1.2 6.3 1.7 9.3 1.7v-2.9c-3.4 0-5-.1-8.8-.8zm-73.7-3.6c-1.3 0-2.6-.2-3.8-.7s-2.3-1.1-3.4-2.1l1.8-2.2c.8.7 1.7 1.3 2.5 1.7.9.4 1.8.6 2.9.6.9 0 1.7-.2 2.2-.6s.8-.9.8-1.6c0-.3-.1-.6-.2-.8s-.3-.5-.6-.7-.7-.4-1.2-.6-1.2-.4-2-.5c-.9-.2-1.7-.5-2.5-.7-.7-.3-1.3-.6-1.8-1s-.6-.9-.8-1.5-.4-1.2-.4-2c0-.7.1-1.4.4-2s.7-1.1 1.2-1.6c.5-.4 1.1-.8 1.8-1s1.5-.4 2.4-.4c1.3 0 2.4.2 3.4.6s2 .9 2.8 1.6l-1.6 2.3c-.8-.6-1.6-1-2.3-1.3-.8-.3-1.5-.5-2.3-.5-.9 0-1.6.2-2.1.6s-.7.9-.7 1.4c0 .3.1.6.2.9s.3.5.6.7.7.4 1.3.6c.5.2 1.2.4 2 .6.9.2 1.7.5 2.4.8s1.3.6 1.7 1c.5.4.8.9 1 1.4s.4 1.2.4 1.9c0 .8-.2 1.5-.5 2.2-.3.6-.7 1.2-1.3 1.6-.5.4-1.2.8-1.9 1s-1.5.3-2.4.3zm15.6-17.5h2.8l9.2 11.9v-11.9h3v17.2h-2.5l-9.5-12.2v12.2h-3zm33.5 17.5c-1.3 0-2.5-.2-3.6-.7s-2-1.1-2.8-1.9-1.4-1.7-1.8-2.8-.7-2.2-.7-3.4c0-1.2.2-2.4.7-3.4.4-1.1 1.1-2 1.9-2.8s1.8-1.5 2.9-1.9c1.1-.5 2.3-.7 3.6-.7s2.5.2 3.6.7 2 1.1 2.8 1.9 1.4 1.7 1.8 2.8.7 2.2.7 3.4c0 1.2-.2 2.4-.7 3.4-.4 1.1-1.1 2-1.9 2.8s-1.8 1.5-2.9 1.9c-1 .5-2.3.7-3.6.7zm.1-2.8c.8 0 1.6-.2 2.3-.5s1.3-.8 1.8-1.3.9-1.2 1.2-1.9.4-1.5.4-2.4c0-.8-.1-1.6-.4-2.4-.3-.7-.7-1.4-1.2-1.9s-1.1-1-1.8-1.3-1.5-.5-2.3-.5-1.6.2-2.3.5-1.3.8-1.8 1.3-.9 1.2-1.2 1.9-.4 1.5-.4 2.4c0 .8.1 1.6.4 2.4.3.7.7 1.4 1.2 1.9s1.1 1 1.8 1.3 1.4.5 2.3.5zm52.2 2.8c-1.1 0-2.1-.2-3-.5s-1.7-.8-2.3-1.4-1.1-1.4-1.5-2.4c-.3-.9-.5-2-.5-3.3v-9.9h3v9.8c0 1.6.4 2.8 1.2 3.7.8.8 1.8 1.3 3.2 1.3s2.4-.4 3.2-1.2 1.2-2 1.2-3.6v-9.9h3v9.8c0 1.3-.2 2.4-.5 3.4-.4 1-.8 1.8-1.5 2.4s-1.4 1.1-2.3 1.4-2 .4-3.2.4zm22.6-17.6h2.8l7.6 17.3h-3.2l-1.7-4.2h-8.1l-1.8 4.2h-3.1zm4.3 10.5-3-6.9-2.9 6.9zm14.7-10.4h3v14.5h9v2.7h-12zm20.8 0h3.2l5.2 8.1 5.2-8.1h3.2v17.2h-3v-12.3l-5.4 8.1h-.1l-5.4-8.1v12.3h-3v-17.2zm27.5 0h3v17.2h-3zm13.5 0h12.7v2.7h-9.7v4.4h8.6v2.7h-8.6v4.6h9.9v2.7h-12.8v-17.1zm-241.1-.3h1.9l5.2 11.8h-2.2l-1.2-2.8h-5.5l-1.2 2.8h-2.1zm2.9 7.1-2-4.7-2 4.7zm9.5-5.1h-3.7v-1.9h9.5v1.9h-3.7v9.8h-2.1zm4.9 13.3h-22.5v1.9h22.4v-1.9z"/><path d="m69.3 52.7h7.6v-20.6h8.1v-6.6h-23.9v6.6h8.1v20.6zm20.6 0h7.6v-10.3h9.7v10.4h7.6v-27.4h-7.6v10.2h-9.7v-10.2h-7.6zm31.2 0h22.1v-6.4h-14.7v-4.3h13.1v-6h-13.1v-4.2h14.5v-6.4h-22v27.3zm50.7.5c6.6 0 11-3.3 11-8.9v-.1c0-5.1-3.9-7.1-10.1-8.5-3.8-.9-4.8-1.4-4.8-2.7 0-1 .9-1.8 2.7-1.8 2.4 0 5.1.9 7.6 2.7l3.8-5.3c-3-2.4-6.6-3.6-11.2-3.6-6.6 0-10.6 3.7-10.6 8.7v.1c0 5.6 4.5 7.2 10.3 8.5 3.7.9 4.6 1.5 4.6 2.7v.1c0 1.2-1.1 1.9-3.2 1.9-3.2 0-6.1-1.1-8.9-3.3l-4.2 5c3.6 3 8.2 4.5 13 4.5m28.6 0c7.8 0 12.8-3.9 12.8-12.7v-15.1h-7.6v15.4c0 3.8-2 5.6-5.1 5.6-3 0-5-1.9-5-5.8v-15.2h-7.6v15.3c-.1 8.6 4.7 12.5 12.5 12.5m18.8-.5h7.4v-15.6l6.9 10.6h.2l7-10.7v15.7h7.5v-27.3h-8l-6.5 10.6-6.5-10.6h-8zm35.4 0h7.4v-15.6l6.9 10.6h.2l7-10.7v15.7h7.5v-27.3h-8l-6.5 10.6-6.5-10.6h-8zm35.6 0h7.6v-27.3h-7.6zm20.8 0h7.6v-20.6h8.2v-6.6h-23.9v6.6h8.2v20.6z"/></g></svg>